<svg width="11" height="11" viewBox="0 0 11 11" fill="none" xmlns="http://www.w3.org/2000/svg">
<path fill-rule="evenodd" clip-rule="evenodd" d="M1.59092 1.10139C1.45574 0.966205 1.23657 0.966205 1.10139 1.10139C0.966205 1.23657 0.966205 1.45574 1.10139 1.59092L5.01047 5.5L1.10139 9.40908C0.966205 9.54426 0.966205 9.76343 1.10139 9.89861C1.23657 10.0338 1.45574 10.0338 1.59092 9.89861L5.5 5.98954L9.40908 9.89861C9.54426 10.0338 9.76343 10.0338 9.89861 9.89861C10.0338 9.76343 10.0338 9.54426 9.89861 9.40908L5.98954 5.5L9.89861 1.59092C10.0338 1.45574 10.0338 1.23657 9.89861 1.10139C9.76343 0.966205 9.54426 0.966205 9.40908 1.10139L5.5 5.01046L1.59092 1.10139Z" fill="#9F9F9F" stroke="#DBDBDB" stroke-linecap="round"/>
</svg>
