<svg width="15" height="15" viewBox="0 0 15 15" fill="none" xmlns="http://www.w3.org/2000/svg">
<path fill-rule="evenodd" clip-rule="evenodd" d="M1.48954 7.01786C1.29836 7.01786 1.14338 7.17284 1.14338 7.36401C1.14338 7.55519 1.29836 7.71017 1.48954 7.71017L7.01781 7.71017L7.01781 13.2384C7.01781 13.4296 7.17279 13.5846 7.36396 13.5846C7.55514 13.5846 7.71011 13.4296 7.71011 13.2384L7.71012 7.71017H13.2384C13.4296 7.71017 13.5845 7.55519 13.5845 7.36401C13.5845 7.17284 13.4296 7.01786 13.2384 7.01786H7.71012L7.71011 1.48959C7.71011 1.29841 7.55514 1.14343 7.36396 1.14343C7.17279 1.14343 7.01781 1.29841 7.01781 1.48959L7.01781 7.01786L1.48954 7.01786Z" fill="#DBDBDB" stroke="#DBDBDB" stroke-linecap="round"/>
</svg>
