<svg width="21" height="25" viewBox="0 0 21 25" fill="none" xmlns="http://www.w3.org/2000/svg">
<path d="M18.5999 11.3892C18.2714 10.9725 17.8715 10.6114 17.5001 10.2503C16.5431 9.41694 15.4576 8.8197 14.5435 7.94467C12.4153 5.91684 11.944 2.56952 13.3009 0C11.944 0.319454 10.7585 1.0417 9.74439 1.83339C6.04507 4.72236 4.58819 9.81973 6.33073 14.1948C6.38786 14.3337 6.44499 14.4726 6.44499 14.6532C6.44499 14.9588 6.23075 15.2365 5.94508 15.3477C5.61657 15.4866 5.27378 15.4032 5.0024 15.181C4.92085 15.1154 4.85297 15.0353 4.80244 14.9449C3.18845 12.9587 2.93135 10.1114 4.01687 7.83356C1.63159 9.7225 0.331826 12.917 0.517506 15.931C0.603205 16.6255 0.688904 17.3199 0.931716 18.0144C1.13168 18.8478 1.51732 19.6811 1.94582 20.4172C3.48839 22.8201 6.15933 24.5424 9.03023 24.8896C12.0868 25.2646 15.3576 24.7229 17.7001 22.6673C20.3139 20.3617 21.228 16.6671 19.8854 13.5004L19.6997 13.1393C19.3998 12.5004 18.5999 11.3892 18.5999 11.3892ZM14.0865 20.1395C13.6865 20.4728 13.0295 20.8339 12.5153 20.9728C10.9156 21.5284 9.3159 20.7506 8.37321 19.8339C10.0729 19.445 11.087 18.2227 11.3869 16.9866C11.6298 15.8755 11.1727 14.9588 10.987 13.8893C10.8156 12.8615 10.8442 11.9865 11.2298 11.0281C11.5012 11.5559 11.7869 12.0837 12.1297 12.5004C13.2295 13.8893 14.9577 14.5004 15.3291 16.3894C15.3862 16.5838 15.4148 16.7783 15.4148 16.9866C15.4576 18.1255 14.9434 19.3756 14.0865 20.1395Z" fill="white"/>
</svg>
