<svg width="14" height="13" viewBox="0 0 14 13" fill="none" xmlns="http://www.w3.org/2000/svg">
<path d="M12.3721 7.6375C12.3721 7.50821 12.3206 7.38421 12.2291 7.29279C12.1375 7.20136 12.0132 7.15 11.8837 7.15H9.93023C9.80071 7.15 9.67649 7.20136 9.5849 7.29279C9.49331 7.38421 9.44186 7.50821 9.44186 7.6375V12.025H8.46512V1.4625C8.46512 0.9893 8.46381 0.6825 8.43386 0.4576C8.40521 0.24635 8.35898 0.18005 8.32186 0.143C8.28474 0.10595 8.21833 0.0598001 8.0067 0.0312001C7.78074 0.00130006 7.47405 0 7 0C6.52595 0 6.21861 0.00130006 5.9933 0.0312001C5.78167 0.0598001 5.71526 0.10595 5.67814 0.143C5.64102 0.18005 5.59479 0.24635 5.56614 0.4576C5.53619 0.68315 5.53488 0.9893 5.53488 1.4625V12.025H4.55814V4.3875C4.55814 4.25821 4.50669 4.13421 4.4151 4.04279C4.32351 3.95136 4.19929 3.9 4.06977 3.9H2.11628C1.98675 3.9 1.86254 3.95136 1.77095 4.04279C1.67936 4.13421 1.62791 4.25821 1.62791 4.3875V12.025H0.488372C0.358848 12.025 0.234628 12.0764 0.143041 12.1678C0.0514534 12.2592 0 12.3832 0 12.5125C0 12.6418 0.0514534 12.7658 0.143041 12.8572C0.234628 12.9486 0.358848 13 0.488372 13H13.5116C13.6412 13 13.7654 12.9486 13.857 12.8572C13.9485 12.7658 14 12.6418 14 12.5125C14 12.3832 13.9485 12.2592 13.857 12.1678C13.7654 12.0764 13.6412 12.025 13.5116 12.025H12.3721V7.6375Z" fill="white"/>
</svg>
